# xmcd
#
# Track frame offsets: 
#        150
#        4923
#        22866
#        40486
#        54538
#        62515
#        75065
#        85084
#        103650
#        109153
#        124390
#        131942
#        142575
#        155630
#        181677
#
# Disc length: 2631 seconds
#
# Revision: 0
# Processed by: cddbd v1.5.2PL0 Copyright (c) Steve Scherf et al.
# Submitted via: ExactAudioCopy v0.99pb5
#
DISCID=b70a450f
DTITLE=Ritarikunta - Albumipromo - TKUG Mixtape
DYEAR=2010
DGENRE=Rap
TTITLE0=Chyde - Takastaas
TTITLE1=Hot'n'totti - Monta Rautaa Tules
TTITLE2=Chyde - Ei O Hallus
TTITLE3=LempiJoe - Hoilaa Pojalles!
TTITLE4=Chyde - Ropstenin Suuntaan
TTITLE5=LempiJoe - Saanko Luvan?
TTITLE6=LempiJoe - Basistivitsi
TTITLE7=Pietari - Tupakkalakko
TTITLE8=Lempijoe - Jees Min‰!!!
TTITLE9=Chyde - Huuhaa
TTITLE10=Xilef Foniboksi
TTITLE11=Hot'n'Totti - Kello Tikitt‰‰
TTITLE12=Hot'n'Totti - Ryyppykaupunki
TTITLE13=LempiJoe - Lempi Saa Sut (feat. V-Ra)
TTITLE14=Hot'n'Totti, LempiJoe and K!rby - Varkaat, Kulkurit
EXTD=
EXTT0=
EXTT1=
EXTT2=
EXTT3=
EXTT4=
EXTT5=
EXTT6=
EXTT7=
EXTT8=
EXTT9=
EXTT10=
EXTT11=
EXTT12=
EXTT13=
EXTT14=
PLAYORDER=
